<svg class="injected-svg" id="svg-8b0e60be-5e08-495c-9934-04c45e1ee1ad" height="100%" width="100%" viewBox="0 0 540 508" xmlns="http://www.w3.org/2000/svg"><path xmlns="http://www.w3.org/2000/svg" id="SvgjsPath4239264" d="M7.27-8.08C6.06-7.98 5.05-6.97 5.05-5.66L5.05-2.53C5.15-1.21 6.16-0.10 7.47-0.10C12.73 0 25.65 0.20 33.53 0C46.66-0.30 51.21-10.20 51.11-21.01C51.01-30.20 49.69-34.74 44.44-38.48C43.73-39.09 43.73-40.20 44.54-40.70C45.55-41.31 46.56-42.12 47.47-43.73C50.90-50.20 52.32-70.50 31.61-70.90C24.75-71.00 12.93-70.80 8.38-70.70C7.37-70.70 6.57-69.89 6.57-68.88L6.77-64.34C6.77-63.33 7.58-62.62 8.59-62.62C8.99-62.62 9.49-62.52 10.10-62.52C11.01-62.52 11.82-61.71 11.82-60.80C12.22-51.41 11.72-43.73 11.72-32.62C11.72-26.66 11.41-15.35 11.31-10.50C11.31-9.29 10.30-8.28 9.09-8.18ZM22.12-33.43C22.12-34.44 22.93-35.25 23.94-35.25C31.61-35.15 35.45-35.55 38.18-29.59C41.21-23.13 40.70-16.97 38.18-11.82C35.86-7.17 30.50-7.68 23.94-7.98C22.93-8.08 22.12-8.89 22.12-9.80ZM22.42-60.90C22.42-61.91 23.23-62.72 24.14-62.72C27.37-62.82 33.84-62.72 35.75-61.61C39.09-59.59 38.68-50.40 37.88-47.27C37.17-44.34 28.28-43.83 24.34-43.83C23.33-43.83 22.52-44.64 22.52-45.55ZM98.07-19.49C99.59-32.42 97.47-56.56 79.08-56.56C54.54-56.56 53.23-6.36 73.33 0.30C84.74 4.04 96.05-1.52 98.07-19.49ZM78.78-6.97C71.61-6.97 68.78-20.00 68.78-30.30C68.78-39.09 72.62-48.28 78.78-48.28C83.63-48.28 88.68-43.73 88.68-30.20C88.68-15.05 86.56-6.97 78.78-6.97ZM145.34-19.49C146.85-32.42 144.73-56.56 126.35-56.56C101.81-56.56 100.50-6.36 120.59 0.30C132.01 4.04 143.32-1.52 145.34-19.49ZM126.05-6.97C118.88-6.97 116.05-20.00 116.05-30.30C116.05-39.09 119.89-48.28 126.05-48.28C130.90-48.28 135.95-43.73 135.95-30.20C135.95-15.05 133.83-6.97 126.05-6.97ZM155.94-7.37C154.73-7.37 153.82-6.36 153.82-5.25L153.92-2.22C153.92-1.01 154.93-0.10 156.05-0.10L171.70-0.20C172.91-0.20 173.82-1.11 173.82-2.32L173.82-5.35C173.82-6.46 172.81-7.37 171.70-7.47L170.99-7.47C169.78-7.47 168.87-8.38 168.87-9.60L168.67-57.87L168.67-72.22C168.67-73.43 167.66-74.34 166.55-74.34L156.45-74.23C155.24-74.23 154.33-73.23 154.33-72.01L154.43-68.88C154.43-67.77 155.34-66.86 156.45-66.76C157.56-66.66 158.37-66.16 158.37-64.64L158.77-9.60C158.77-8.48 157.86-7.47 156.75-7.47ZM197.05-7.98L182.31-28.28C181.80-29.09 181.80-30.10 182.41-30.81L193.11-47.07C193.31-47.37 193.62-47.57 194.02-47.57L198.06-47.67C198.67-47.67 199.17-48.18 199.17-48.78L199.27-54.04C199.27-54.64 198.67-55.25 198.06-55.25L180.69-55.25C180.08-55.25 179.48-54.74 179.58-54.04L179.58-49.09C179.58-48.48 180.18-47.98 180.79-47.98L182.31-47.98C183.52-47.87 182.41-46.86 181.80-45.96L171.60-30.30C171.40-29.90 171.40-29.39 171.70-28.99L185.54-9.29C186.75-7.68 186.14-7.37 184.63-7.47L184.12-7.37C183.01-7.37 182.10-6.36 182.10-5.15L182.31-1.92C182.31-0.81 183.21 0 184.22 0L199.58 0.10C200.89 0.10 201.90-1.01 201.90-2.32L201.80-5.56C201.80-6.57 200.99-7.37 200.08-7.37L197.96-7.47C197.66-7.47 197.25-7.68 197.05-7.98ZM211.19-8.08C209.98-7.98 208.97-6.97 208.97-5.66L208.97-2.53C209.07-1.21 210.08-0.10 211.39-0.10C216.65 0 229.57 0.20 237.45 0C250.58-0.30 255.13-10.20 255.03-21.01C254.92-30.20 253.61-34.74 248.36-38.48C247.65-39.09 247.65-40.20 248.46-40.70C249.47-41.31 250.48-42.12 251.39-43.73C254.82-50.20 256.24-70.50 235.53-70.90C228.66-71.00 216.85-70.80 212.30-70.70C211.29-70.70 210.48-69.89 210.48-68.88L210.69-64.34C210.69-63.33 211.49-62.62 212.50-62.62C212.91-62.62 213.41-62.52 214.02-62.52C214.93-62.52 215.74-61.71 215.74-60.80C216.14-51.41 215.64-43.73 215.64-32.62C215.64-26.66 215.33-15.35 215.23-10.50C215.23-9.29 214.22-8.28 213.01-8.18ZM226.04-33.43C226.04-34.44 226.85-35.25 227.86-35.25C235.53-35.15 239.37-35.55 242.10-29.59C245.13-23.13 244.62-16.97 242.10-11.82C239.77-7.17 234.42-7.68 227.86-7.98C226.85-8.08 226.04-8.89 226.04-9.80ZM226.34-60.90C226.34-61.91 227.15-62.72 228.06-62.72C231.29-62.82 237.75-62.72 239.67-61.61C243.01-59.59 242.60-50.40 241.79-47.27C241.09-44.34 232.20-43.83 228.26-43.83C227.25-43.83 226.44-44.64 226.44-45.55ZM263.81-7.37C262.90-7.17 262.20-6.26 262.30-5.35L262.30-1.82C262.30-0.61 263.21 0.20 264.32 0.20L281.59 0.30C282.70 0.30 283.61-0.61 283.61-1.72L283.61-5.15C283.61-6.26 282.80-7.17 281.69-7.17L280.07-7.27C278.96-7.37 278.15-8.28 278.15-9.29L277.75-57.67L277.75-72.22C277.75-73.33 276.74-74.23 275.63-74.23L264.82-74.13C263.71-74.13 262.70-73.12 262.80-71.91L263.11-68.58C263.11-67.57 263.91-66.76 264.92-66.66C266.03-66.56 266.84-65.75 266.84-64.64L267.25-9.80C267.25-8.79 266.54-7.98 265.63-7.78L263.81-7.37ZM329.46-19.49C330.98-32.42 328.86-56.56 310.47-56.56C285.93-56.56 284.62-6.36 304.72 0.30C316.13 4.04 327.44-1.52 329.46-19.49ZM310.17-6.97C303-6.97 300.17-20.00 300.17-30.30C300.17-39.09 304.01-48.28 310.17-48.28C315.02-48.28 320.07-43.73 320.07-30.20C320.07-15.05 317.95-6.97 310.17-6.97ZM376.73-55.45C373.19-55.55 369.96-55.45 366.83-55.55C365.42-55.55 364.21-54.34 364.21-52.92L364.21-52.32C364.21-51.91 363.60-51.61 363.20-52.02C360.97-54.44 358.15-55.55 355.42-55.75C347.74-56.36 343.40-52.72 339.66-43.94C337.34-38.28 337.24-16.06 340.67-9.29C342.89-4.85 346.53-0.51 350.07 0.30C352.79 0.91 358.85 1.11 363.60-4.14C363.90-4.44 364.41-4.24 364.41-3.84C364.51 0.71 364.51 5.76 364.31 8.79C364.00 14.34 359.26 16.67 356.02 16.56C352.29 16.36 348.95 14.65 345.62 13.64C345.52 13.64 345.32 13.53 345.22 13.53C343.80 13.13 342.39 13.84 341.88 15.15L340.37 19.19C339.97 20.20 340.37 21.31 341.28 21.82L341.88 22.22C350.47 26.87 359.86 28.08 368.55 22.42C372.69 19.70 374.31 11.82 374.20 5.86C373.80-8.69 373.60-17.27 373.70-26.56L373.70-45.45C373.70-46.76 374.81-47.87 376.12-47.87L376.83-47.87C378.55-47.98 379.86-49.39 379.86-51.01L379.86-52.42C379.86-54.14 378.45-55.45 376.73-55.45ZM363.80-15.96C363.60-12.63 361.98-6.77 354.91-6.97C350.87-7.07 349.46-13.53 348.65-16.77C347.74-20.00 346.33-36.87 349.86-43.94C351.98-48.08 356.23-49.09 359.46-47.27C360.97-46.46 362.69-44.44 363.60-41.41C364.00-40.30 363.90-38.48 363.90-37.37C363.90-32.22 363.80-27.78 363.80-27.07C363.80-24.54 363.90-21.31 364.00-17.68C363.90-16.87 363.80-16.26 363.80-15.96Z" fill="#e9d15c" fontsize="101" transform="matrix(1,0,0,1,79.045,277.06790339035865)"></path></svg>